#N canvas 62 264 1397 720 10;
#X obj 555 219 vsl 80 160 0 1 0 0 empty empty master 0 10 0 14 -1 -4034
-4034 12720 1;
#X msg 583 131 0.8;
#X obj 695 33 loadbang;
#X obj 639 220 vsl 80 160 0 1 0 0 empty empty harmonic 0 10 0 14 -4034
-1 -1 8820 1;
#X obj 61 531 +~;
#X msg 741 138 0.3;
#X msg 779 141 0.1;
#X msg 868 136 0.7;
#X msg 825 138 0.02;
#X msg 348 434 wet \$1;
#X msg 343 456 dry 1 - \$1;
#X msg 346 413 damping \$1;
#X msg 349 393 width \$1;
#X msg 352 372 roomsize \$1;
#X obj 134 276 *~;
#X obj 202 279 *~;
#X obj 235 277 *~;
#X obj 171 277 *~;
#X obj 268 276 *~;
#X obj 764 220 vsl 40 160 0 5 0 0 empty empty depth 0 10 0 14 -159808
-1 -262144 1272 1;
#X obj 722 220 vsl 40 160 0.01 5 0 0 empty empty speed 0 10 0 14 -232576
-1 -1 2199 1;
#X obj 813 266 hsl 160 40 0 1 0 0 empty empty width 90 10 0 14 -86853
-1 -262144 1590 1;
#X obj 812 307 hsl 160 40 0 1 0 0 empty empty damping 90 10 0 14 -4032
-1 -1 318 1;
#X obj 812 348 hsl 160 40 0 1 0 0 empty empty prop_wet 90 10 0 14 -262144
-1 -1 11130 1;
#X obj 813 225 hsl 160 40 0 1 0 0 empty empty roomsize 90 10 0 14 -260097
-1 -262144 4770 1;
#X obj 864 518 s speed_chorus_\$0;
#X obj 862 497 s depth_chorus_\$0;
#X obj 65 333 r speed_chorus_\$0;
#X obj 111 353 r depth_chorus_\$0;
#X obj 847 18 cnv 15 100 60 empty empty empty 20 12 0 14 -233017 -66577
0;
#X msg 645 129 0.7;
#X msg 677 128 0.4;
#X obj 865 409 s roomsize_reverb_\$0;
#X obj 864 432 s width_reverb_\$0;
#X obj 863 452 s damping_reverb_\$0;
#X obj 863 474 s wet_reverb_\$0;
#X obj 422 399 r roomsize_reverb_\$0;
#X obj 422 419 r width_reverb_\$0;
#X obj 421 440 r damping_reverb_\$0;
#X obj 421 461 r wet_reverb_\$0;
#X obj 44 28 inlet~;
#X obj 58 567 outlet~;
#X obj 157 570 outlet~;
#X obj 152 524 +~;
#X obj 115 20 inlet;
#X obj 212 16 inlet;
#X obj 47 291 *~;
#X obj 23 431 chorus/basic_chorus;
#X obj 152 465 reverb/freeverb~;
#X obj 306 271 *~;
#X obj 374 274 *~;
#X obj 407 272 *~;
#X obj 337 276 *~;
#X obj 440 271 *~;
#X obj 284 349 catch~ \$0-sum_harmonics;
#X obj 572 484 *;
#X obj 697 447 t b f;
#X obj 589 423 expr 1 - $f1;
#X obj 572 457 t b f;
#X obj 683 477 *;
#X obj 461 44 r \$0-cant_id;
#X obj 454 8 initbang;
#X obj 285 325 throw~ \$0-sum_harmonics;
#X obj 121 302 expr~ $v1 + $v2 + $v3 + $v4 + $v5 + $v6 + $v7 + $v8
+ $v9 + $v10, f 64;
#X obj 328 35 r \$0-level_harmonics;
#X obj 684 519 s \$0-level_harmonics;
#X obj 567 516 s \$0-level_seed;
#X obj 83 218 r \$0-level_seed;
#X obj 70 130 ../externals/cantina~ \$1 \$2;
#X obj 627 58 / 127;
#X obj 615 12 route 14;
#X obj 261 10 t l l;
#X msg 95 86 controller damper 1 64;
#X obj 33 391 reverb/freeverb~;
#X msg 619 145 0.6;
#X connect 0 0 55 0;
#X connect 0 0 59 0;
#X connect 1 0 0 0;
#X connect 2 0 1 0;
#X connect 2 0 5 0;
#X connect 2 0 6 0;
#X connect 2 0 8 0;
#X connect 2 0 7 0;
#X connect 2 0 30 0;
#X connect 2 0 31 0;
#X connect 2 0 72 0;
#X connect 2 0 74 0;
#X connect 3 0 57 0;
#X connect 3 0 56 0;
#X connect 4 0 41 0;
#X connect 5 0 24 0;
#X connect 6 0 21 0;
#X connect 7 0 23 0;
#X connect 8 0 22 0;
#X connect 9 0 48 0;
#X connect 9 0 73 0;
#X connect 10 0 48 0;
#X connect 10 0 73 0;
#X connect 11 0 48 0;
#X connect 11 0 73 0;
#X connect 12 0 48 0;
#X connect 12 0 73 0;
#X connect 13 0 48 0;
#X connect 13 0 73 0;
#X connect 14 0 63 0;
#X connect 15 0 63 2;
#X connect 16 0 63 3;
#X connect 17 0 63 1;
#X connect 18 0 63 4;
#X connect 19 0 26 0;
#X connect 20 0 25 0;
#X connect 21 0 33 0;
#X connect 22 0 34 0;
#X connect 23 0 35 0;
#X connect 24 0 32 0;
#X connect 27 0 47 1;
#X connect 28 0 47 2;
#X connect 30 0 20 0;
#X connect 31 0 19 0;
#X connect 36 0 13 0;
#X connect 37 0 12 0;
#X connect 38 0 11 0;
#X connect 39 0 9 0;
#X connect 39 0 10 0;
#X connect 40 0 68 0;
#X connect 43 0 42 0;
#X connect 44 0 68 1;
#X connect 45 0 68 2;
#X connect 46 0 73 0;
#X connect 47 0 4 0;
#X connect 47 1 43 0;
#X connect 48 0 4 1;
#X connect 48 1 43 1;
#X connect 49 0 63 5;
#X connect 50 0 63 7;
#X connect 51 0 63 8;
#X connect 52 0 63 6;
#X connect 53 0 63 9;
#X connect 55 0 66 0;
#X connect 56 0 59 0;
#X connect 56 1 59 1;
#X connect 57 0 58 0;
#X connect 58 0 55 0;
#X connect 58 1 55 1;
#X connect 59 0 65 0;
#X connect 63 0 48 0;
#X connect 63 0 48 1;
#X connect 64 0 53 1;
#X connect 64 0 51 1;
#X connect 64 0 50 1;
#X connect 64 0 52 1;
#X connect 64 0 49 1;
#X connect 64 0 18 1;
#X connect 64 0 16 1;
#X connect 64 0 15 1;
#X connect 64 0 17 1;
#X connect 64 0 14 1;
#X connect 67 0 46 1;
#X connect 68 0 46 0;
#X connect 68 3 14 0;
#X connect 68 4 17 0;
#X connect 68 5 15 0;
#X connect 68 6 16 0;
#X connect 68 7 18 0;
#X connect 68 8 49 0;
#X connect 68 9 52 0;
#X connect 68 10 50 0;
#X connect 68 11 51 0;
#X connect 68 12 53 0;
#X connect 69 0 3 0;
#X connect 70 0 69 0;
#X connect 71 1 70 0;
#X connect 72 0 68 0;
#X connect 73 0 47 0;
#X connect 74 0 3 0;
#X coords 0 -1 1 1 430 189 1 550 200;
